<svg xmlns="http://www.w3.org/2000/svg" width="22" height="22" viewBox="0 0 22 22">
  <path id="Path_62" data-name="Path 62" d="M14.3-2.75l7.356,7.425A.916.916,0,0,1,22,5.431a.916.916,0,0,1-.344.756L19.938,7.906a1,1,0,0,1-1.513,0L11,.55,3.575,7.906a.916.916,0,0,1-.756.344.916.916,0,0,1-.756-.344L.344,6.188A.916.916,0,0,1,0,5.431a.916.916,0,0,1,.344-.756L7.7-2.75.344-10.175A.916.916,0,0,1,0-10.931a.916.916,0,0,1,.344-.756l1.719-1.719a.916.916,0,0,1,.756-.344.916.916,0,0,1,.756.344L11-6.05l7.425-7.356a.916.916,0,0,1,.756-.344.916.916,0,0,1,.756.344l1.719,1.719a.916.916,0,0,1,.344.756.916.916,0,0,1-.344.756Z" transform="translate(0 13.75)"/>
</svg>
