<svg width="136" height="34" viewBox="0 0 136 34" fill="none" xmlns="http://www.w3.org/2000/svg">
<path d="M131.673 4.3888V12.1173H134.356V15.8542H131.673V22.8183C131.673 23.4978 131.84 24.0073 132.176 24.347C132.511 24.6867 133.014 24.8566 133.685 24.8566C134.02 24.8566 135.614 24.8566 135.614 24.8566V29.2729C135.614 29.2729 132.679 29.2729 132.259 29.2729C130.918 29.2729 129.241 29.0182 128.067 27.9141C126.893 26.81 126.39 25.3662 126.39 23.3279V15.7693H123.958V12.0324H126.39V4.3888H131.673ZM115.992 29.6126C113.56 29.6126 111.463 28.7634 110.038 27.2346C108.529 25.7059 107.858 23.6676 107.858 21.2896V20.6952C107.858 18.0623 108.529 15.9391 109.87 14.2406C111.212 12.6269 113.141 11.7776 115.656 11.7776C117.921 11.7776 119.765 12.457 121.023 13.8159C122.365 15.2597 122.952 17.1282 122.952 19.5062V22.3087H113.309V22.3937C113.392 23.3279 113.812 23.9225 114.399 24.5169C114.985 25.1115 115.824 25.3662 116.746 25.3662C117.753 25.3662 118.507 25.2813 119.095 25.1115C119.681 24.9416 120.52 24.6868 121.358 24.2622L122.616 27.5743C121.861 28.1689 120.939 28.5935 119.765 29.0182C118.592 29.4428 117.25 29.6126 115.992 29.6126ZM115.573 15.8542C114.818 15.8542 114.231 16.109 113.895 16.7035C113.56 17.298 113.309 18.0623 113.224 18.9116L113.309 18.9966H117.837V18.5719C117.837 17.6377 117.669 17.0432 117.334 16.6186C116.831 16.0241 116.327 15.8542 115.573 15.8542ZM98.2985 29.6126C95.8667 29.6126 93.7701 28.7634 92.3448 27.2346C90.9195 25.7059 90.1645 23.6676 90.1645 21.2896V20.6952C90.1645 18.0623 90.8353 15.9391 92.1769 14.2406C93.5186 12.6269 95.4474 11.7776 97.9628 11.7776C100.227 11.7776 102.072 12.457 103.33 13.8159C104.587 15.1747 105.258 17.1282 105.258 19.5062V22.3087H95.6153V22.3937C95.6989 23.3279 96.1182 23.9225 96.7054 24.5169C97.292 25.1115 98.1307 25.3662 99.053 25.3662C100.06 25.3662 100.814 25.2813 101.401 25.1115C101.988 24.9416 102.826 24.6868 103.665 24.2622L104.923 27.5743C104.168 28.1689 103.246 28.5935 102.072 29.0182C100.982 29.4428 99.6402 29.6126 98.2985 29.6126ZM97.9628 15.8542C97.2084 15.8542 96.6212 16.109 96.2861 16.7035C95.9504 17.298 95.6989 18.0623 95.6153 18.9116L95.6989 18.9966H100.227V18.5719C100.227 17.6377 100.06 17.0432 99.7238 16.6186C99.2208 16.0241 98.7179 15.8542 97.9628 15.8542ZM82.2825 21.969L84.1271 11.9475H88.9065L85.0494 29.188H80.6052L77.8382 20.0157H77.754L74.9871 29.188H70.5429L66.6016 12.0324H71.4652L73.3098 22.1389H73.3934L76.0773 12.0324H79.4314L82.2825 21.969ZM60.0607 24.347C60.0607 23.9224 59.8092 23.4978 59.3062 23.158C58.8032 22.8183 57.9646 22.4786 56.7066 22.2239C54.778 21.7992 53.2685 21.2047 52.2623 20.4403C51.2561 19.5911 50.7529 18.487 50.7529 17.0432C50.7529 15.5145 51.4238 14.2406 52.5977 13.1365C53.8555 12.0324 55.5328 11.6077 57.6289 11.6077C59.8092 11.6077 61.6538 12.1173 62.9118 13.1365C64.2534 14.1556 64.8406 15.4296 64.7564 17.1281V17.213H59.7255C59.7255 16.5336 59.5577 16.024 59.222 15.6843C58.8869 15.3446 58.2997 15.1747 57.6289 15.1747C57.0423 15.1747 56.6229 15.3446 56.2036 15.6843C55.7842 16.024 55.6164 16.3638 55.6164 16.8733C55.6164 17.3829 55.8679 17.7226 56.2872 18.0623C56.7066 18.402 57.6289 18.6569 58.8869 18.9116C60.8993 19.3363 62.4924 19.9308 63.4148 20.6952C64.4213 21.5445 64.9242 22.6485 64.9242 24.1772C64.9242 25.7059 64.2534 26.9799 62.9118 27.999C61.5701 29.0182 59.8092 29.5277 57.6289 29.5277C55.3649 29.5277 53.5201 28.9332 52.1784 27.7442C50.8368 26.5552 50.2498 25.2813 50.3337 23.7526V23.6676H55.1134C55.1134 24.5169 55.3649 25.1115 55.8679 25.3662C56.3714 25.621 57.0423 25.9607 57.7967 25.9607C58.5512 25.9607 59.0547 25.7909 59.3898 25.5361C59.8928 25.2813 60.0607 24.8566 60.0607 24.347ZM37.2523 11.9475L37.4201 14.3255C38.007 13.4762 38.6779 12.7968 39.4326 12.3722C40.2711 11.8626 41.1096 11.6077 42.1159 11.6077C43.7091 11.6077 45.0508 12.2023 45.9732 13.2215C46.8956 14.2406 47.3987 16.024 47.3987 18.402V29.188H42.2836V18.487C42.2836 17.4679 42.1159 16.8733 41.6966 16.4487C41.2774 16.024 40.6903 15.8542 39.9357 15.8542C39.4326 15.8542 39.0133 15.9392 38.594 16.109C38.1747 16.2789 37.8393 16.5336 37.5877 16.8733V29.2729H32.3887V12.0324H37.2523V11.9475ZM29.2023 8.72022H23.9194V4.3888H29.2023V8.72022ZM29.2023 29.2729H23.9194V12.0324H29.2023V29.2729ZM12.3475 29.2729V15.6843H9.91575V11.9475H12.3475V10.164C12.3475 8.21063 12.9345 6.68192 14.0246 5.57786C15.1986 4.4738 16.9595 4.21898 18.2174 4.21898C18.6366 4.21898 21.5715 4.21898 21.5715 4.21898V8.55033C21.5715 8.55033 19.9783 8.55033 19.6429 8.55033C18.972 8.55033 18.4689 8.72022 18.1335 9.05992C17.7981 9.39963 17.6304 9.90921 17.6304 10.5886V11.8626H20.9007V15.5994H17.6304V29.103H12.3475V29.2729ZM2.28497 5.83263C2.28497 0.651974 4.9683 0.227327 9.49647 0.227327V4.30392C7.40009 4.30392 6.56154 4.64363 6.56154 5.91757V12.6269C6.56154 14.1556 6.6454 15.7693 5.38757 16.7884C6.6454 17.8076 6.56154 19.3363 6.56154 20.9499V27.6593C6.56154 29.0182 7.40009 29.2729 9.49647 29.2729V33.3495C4.9683 33.3495 2.28497 32.9249 2.28497 27.7442V20.9499C2.28497 19.8459 2.28497 18.6569 0.188599 18.6569V15.0899C2.28497 15.0899 2.28497 13.8159 2.28497 12.7968V5.83263Z" fill="#14142B"/>
</svg>
